{"title":"Stranger Than Paradise (1984) 720p BDRip x264","uid":15601360,"size":745250342,"categoryP":"video","categoryS":"movies","magnet":"?xt=urn:btih:b14e025cb82dd67f745d8b8f78801b8e63bb5842&amp;dn=Stranger+Than+Paradise+%281984%29+720p+BDRip+x264&amp;tr=udp%3A%2F%2Ftracker.leechers-paradise.org%3A6969&amp;tr=udp%3A%2F%2Fzer0day.ch%3A1337&amp;tr=udp%3A%2F%2Fopen.demonii.com%3A1337&amp;tr=udp%3A%2F%2Ftracker.coppersurfer.tk%3A6969&amp;tr=udp%3A%2F%2Fexodus.desync.com%3A6969","seeders":5,"leechers":2,"uploader":"Pongydog","files":1,"time":1471654206,"description":"http://www.imdb.com/title/tt0088184\r\n\r\n\r\n\r\nA self-styled New York hipster is paid a surprise visit by his younger cousin from Budapest. From initial hostility and indifference a small degree of affection grows between the two. Along... See full summary » \r\n\r\nDirector: Jim Jarmusch  \r\n\r\nWriter: Jim Jarmusch  \r\n\r\nStars: John Lurie,  Eszter Balint,  Richard Edson  | \r\n\r\nGeneral\r\nComplete name                            : C:Usersuser1VideosStranger Than Paradise (1984) 720p BDRip x264.mp4\r\nFormat                                   : MPEG-4\r\nFormat profile                           : Base Media\r\nCodec ID                                 : isom (isom/iso2/avc1/mp41)\r\nFile size                                : 711 MiB\r\nDuration                                 : 1h 29mn\r\nOverall bit rate                         : 1 116 Kbps\r\nEncoded date                             : UTC 2016-08-11 03:47:46\r\nTagged date                              : UTC 2016-08-11 03:47:46\r\nWriting application                      : Lavf57.36.100\r\n\r\nVideo\r\nID                                       : 1\r\nFormat                                   : AVC\r\nFormat/Info                              : Advanced Video Codec\r\nFormat profile                           :   \r\nFormat settings, CABAC                   : Yes\r\nFormat settings, ReFrames                : 8 frames\r\nCodec ID                                 : avc1\r\nCodec ID/Info                            : Advanced Video Coding\r\nDuration                                 : 1h 29mn\r\nBit rate                                 : 1 000 Kbps\r\nWidth                                    : 1 280 pixels\r\nHeight                                   : 720 pixels\r\nDisplay aspect ratio                     : 16:9\r\nFrame rate mode                          : Constant\r\nFrame rate                               : 23.976 (24000/1001) fps\r\nColor space                              : YUV\r\nChroma subsampling                       : 4:2:0\r\nBit depth                                : 8 bits\r\nScan type                                : Progressive\r\nBits/(Pixel*Frame)                       : 0.045\r\nStream size                              : 636 MiB (90%)\r\nWriting library                          : x264 core 148 r2643\r\nEncoding settings                        : cabac=1 / ref=8 / deblock=1:0:0 / analyse=0x3:0x133 / me=umh / subme=9 / psy=1 / psy_rd=1.00:0.00 / mixed_ref=0 / me_range=16 / chroma_me=1 / trellis=2 / 8x8dct=1 / cqm=0 / deadzone=21,11 / fast_pskip=1 / chroma_qp_offset=-2 / threads=3 / lookahead_threads=1 / sliced_threads=0 / nr=0 / decimate=1 / interlaced=0 / bluray_compat=0 / constrained_intra=0 / bframes=3 / b_pyramid=0 / b_adapt=2 / b_bias=0 / direct=3 / weightb=1 / open_gop=0 / weightp=2 / keyint=239 / keyint_min=23 / scenecut=40 / intra_refresh=0 / rc_lookahead=60 / rc=2pass / mbtree=1 / bitrate=1000 / ratetol=1.0 / qcomp=0.60 / qpmin=10 / qpmax=69 / qpstep=4 / cplxblur=20.0 / qblur=0.5 / vbv_maxrate=2400 / vbv_bufsize=24000 / nal_hrd=none / filler=0 / ip_ratio=1.40 / aq=3:1.00\r\nLanguage                                 : English\r\nEncoded date                             : UTC 2016-08-11 03:47:46\r\nTagged date                              : UTC 2016-08-11 03:47:46\r\nMenus                                    : 3\r\n\r\nAudio\r\nID                                       : 2\r\nFormat                                   : AAC\r\nFormat/Info                              : Advanced Audio Codec\r\nFormat profile                           : LC\r\nCodec ID                                 : 40\r\nDuration                                 : 1h 29mn\r\nDuration_LastFrame                       : -11ms\r\nBit rate mode                            : Constant\r\nBit rate                                 : 112 Kbps\r\nChannel(s)                               : 2 channels\r\nChannel positions                        : Front: L R\r\nSampling rate                            : 48.0 KHz\r\nFrame rate                               : 46.875 fps (1024 spf)\r\nCompression mode                         : Lossy\r\nStream size                              : 71.3 MiB (10%)\r\nLanguage                                 : English\r\nDefault                                  : Yes\r\nAlternate group                          : 1\r\nEncoded date                             : UTC 2016-08-11 03:47:46\r\nTagged date                              : UTC 2016-08-11 03:47:46\r\nMenus","torrent":{"xt":"urn:btih:b14e025cb82dd67f745d8b8f78801b8e63bb5842","amp;dn":"Stranger+Than+Paradise+%281984%29+720p+BDRip+x264","amp;tr":["udp%3A%2F%2Ftracker.leechers-paradise.org%3A6969","udp%3A%2F%2Fzer0day.ch%3A1337","udp%3A%2F%2Fopen.demonii.com%3A1337","udp%3A%2F%2Ftracker.coppersurfer.tk%3A6969","udp%3A%2F%2Fexodus.desync.com%3A6969"],"infoHash":"b14e025cb82dd67f745d8b8f78801b8e63bb5842","infoHashBuffer":{"type":"Buffer","data":[177,78,2,92,184,45,214,127,116,93,139,143,120,128,27,142,99,187,88,66]},"announce":[],"urlList":[]}}